<mxfile host="app.diagrams.net" agent="Mozilla/5.0 (Macintosh; Intel Mac OS X 10_15_7) AppleWebKit/537.36 (KHTML, like Gecko) Chrome/138.0.0.0 Safari/537.36" version="28.0.6">
  <diagram id="EdGJA9e4Q2ieo2XDZF0G" name="Page-1">
    <mxGraphModel dx="2916" dy="1150" grid="1" gridSize="10" guides="1" tooltips="1" connect="1" arrows="1" fold="1" page="1" pageScale="1" pageWidth="850" pageHeight="1100" math="0" shadow="0">
      <root>
        <mxCell id="0" />
        <mxCell id="1" parent="0" />
        <mxCell id="T-jjDlv4j_7LP1yPRQte-26" style="edgeStyle=orthogonalEdgeStyle;rounded=0;orthogonalLoop=1;jettySize=auto;html=1;exitX=0.5;exitY=1;exitDx=0;exitDy=0;strokeWidth=2;fontStyle=1" parent="1" source="T-jjDlv4j_7LP1yPRQte-1" target="T-jjDlv4j_7LP1yPRQte-3" edge="1">
          <mxGeometry relative="1" as="geometry" />
        </mxCell>
        <mxCell id="T-jjDlv4j_7LP1yPRQte-1" value="&lt;font style=&quot;color: light-dark(rgb(255, 255, 255), rgb(255, 255, 255));&quot;&gt;graph-json-generator&lt;/font&gt;" style="rounded=1;whiteSpace=wrap;html=1;fontFamily=Poppins;fontSource=https%3A%2F%2Ffonts.googleapis.com%2Fcss%3Ffamily%3DPoppins;fontStyle=1;strokeWidth=2;strokeColor=default;fillColor=light-dark(#03A791,#03A791);" parent="1" vertex="1">
          <mxGeometry x="280" y="340" width="120" height="60" as="geometry" />
        </mxCell>
        <mxCell id="T-jjDlv4j_7LP1yPRQte-9" style="edgeStyle=orthogonalEdgeStyle;rounded=0;orthogonalLoop=1;jettySize=auto;html=1;exitX=0;exitY=0.5;exitDx=0;exitDy=0;exitPerimeter=0;entryX=0.5;entryY=0;entryDx=0;entryDy=0;strokeWidth=2;fontStyle=1;curved=1;" parent="1" source="T-jjDlv4j_7LP1yPRQte-3" target="T-jjDlv4j_7LP1yPRQte-5" edge="1">
          <mxGeometry relative="1" as="geometry" />
        </mxCell>
        <mxCell id="T-jjDlv4j_7LP1yPRQte-23" style="edgeStyle=orthogonalEdgeStyle;rounded=0;orthogonalLoop=1;jettySize=auto;html=1;strokeWidth=2;fontStyle=1" parent="1" source="T-jjDlv4j_7LP1yPRQte-3" target="C5KaRRyOP_gIzHdJBiek-3" edge="1">
          <mxGeometry relative="1" as="geometry">
            <mxPoint x="340" y="640" as="sourcePoint" />
          </mxGeometry>
        </mxCell>
        <mxCell id="T-jjDlv4j_7LP1yPRQte-24" style="edgeStyle=orthogonalEdgeStyle;rounded=0;orthogonalLoop=1;jettySize=auto;html=1;exitX=0;exitY=0;exitDx=80;exitDy=65;exitPerimeter=0;strokeWidth=2;fontStyle=1;curved=1;" parent="1" source="T-jjDlv4j_7LP1yPRQte-3" target="T-jjDlv4j_7LP1yPRQte-25" edge="1">
          <mxGeometry relative="1" as="geometry">
            <mxPoint x="650" y="535" as="targetPoint" />
          </mxGeometry>
        </mxCell>
        <mxCell id="T-jjDlv4j_7LP1yPRQte-3" value="&lt;font style=&quot;font-size: 20px;&quot;&gt;JSON&lt;/font&gt;" style="shape=note;whiteSpace=wrap;html=1;backgroundOutline=1;darkOpacity=0.05;fontFamily=Poppins;fontSource=https%3A%2F%2Ffonts.googleapis.com%2Fcss%3Ffamily%3DPoppins;fontStyle=1;strokeWidth=2;" parent="1" vertex="1">
          <mxGeometry x="300" y="470" width="80" height="100" as="geometry" />
        </mxCell>
        <mxCell id="T-jjDlv4j_7LP1yPRQte-21" style="edgeStyle=orthogonalEdgeStyle;rounded=0;orthogonalLoop=1;jettySize=auto;html=1;exitX=0;exitY=0.5;exitDx=0;exitDy=0;entryX=0.5;entryY=0;entryDx=0;entryDy=0;strokeWidth=2;fontStyle=1;curved=1;" parent="1" source="T-jjDlv4j_7LP1yPRQte-4" target="T-jjDlv4j_7LP1yPRQte-17" edge="1">
          <mxGeometry relative="1" as="geometry" />
        </mxCell>
        <mxCell id="T-jjDlv4j_7LP1yPRQte-22" style="edgeStyle=orthogonalEdgeStyle;rounded=0;orthogonalLoop=1;jettySize=auto;html=1;exitX=1;exitY=0.5;exitDx=0;exitDy=0;strokeWidth=2;fontStyle=1;curved=1;" parent="1" source="T-jjDlv4j_7LP1yPRQte-4" target="T-jjDlv4j_7LP1yPRQte-14" edge="1">
          <mxGeometry relative="1" as="geometry">
            <mxPoint x="470" y="810" as="targetPoint" />
          </mxGeometry>
        </mxCell>
        <mxCell id="T-jjDlv4j_7LP1yPRQte-4" value="&lt;font style=&quot;color: light-dark(rgb(255, 255, 255), rgb(255, 255, 255));&quot;&gt;graph-database-loader&lt;/font&gt;" style="rounded=1;whiteSpace=wrap;html=1;fontFamily=Poppins;fontSource=https%3A%2F%2Ffonts.googleapis.com%2Fcss%3Ffamily%3DPoppins;fontStyle=1;strokeWidth=2;fillColor=light-dark(#03A791,#03A791);" parent="1" vertex="1">
          <mxGeometry x="280" y="690" width="120" height="60" as="geometry" />
        </mxCell>
        <mxCell id="T-jjDlv4j_7LP1yPRQte-5" value="huggingface" style="rounded=1;whiteSpace=wrap;html=1;fontFamily=Poppins;fontSource=https%3A%2F%2Ffonts.googleapis.com%2Fcss%3Ffamily%3DPoppins;fontStyle=1;strokeWidth=2;" parent="1" vertex="1">
          <mxGeometry x="70" y="600" width="120" height="60" as="geometry" />
        </mxCell>
        <mxCell id="T-jjDlv4j_7LP1yPRQte-27" style="edgeStyle=orthogonalEdgeStyle;rounded=0;orthogonalLoop=1;jettySize=auto;html=1;exitX=0.5;exitY=1;exitDx=0;exitDy=0;exitPerimeter=0;strokeWidth=2;fontStyle=1" parent="1" source="T-jjDlv4j_7LP1yPRQte-7" target="T-jjDlv4j_7LP1yPRQte-1" edge="1">
          <mxGeometry relative="1" as="geometry" />
        </mxCell>
        <mxCell id="T-jjDlv4j_7LP1yPRQte-7" value="&lt;font style=&quot;font-size: 20px;&quot;&gt;YAML&lt;/font&gt;" style="shape=note;whiteSpace=wrap;html=1;backgroundOutline=1;darkOpacity=0.05;fontFamily=Poppins;fontSource=https%3A%2F%2Ffonts.googleapis.com%2Fcss%3Ffamily%3DPoppins;fontStyle=1;strokeWidth=2;" parent="1" vertex="1">
          <mxGeometry x="300" y="110" width="80" height="100" as="geometry" />
        </mxCell>
        <mxCell id="T-jjDlv4j_7LP1yPRQte-8" value="" style="shape=image;verticalLabelPosition=bottom;labelBackgroundColor=default;verticalAlign=top;aspect=fixed;imageAspect=0;image=https://repository-images.githubusercontent.com/250213286/d6f09c00-7066-11eb-88ac-0b319e59658a;fontFamily=Poppins;fontSource=https%3A%2F%2Ffonts.googleapis.com%2Fcss%3Ffamily%3DPoppins;fontStyle=1;strokeWidth=2;" parent="1" vertex="1">
          <mxGeometry x="-120" y="794" width="180" height="90" as="geometry" />
        </mxCell>
        <mxCell id="T-jjDlv4j_7LP1yPRQte-13" style="edgeStyle=orthogonalEdgeStyle;rounded=0;orthogonalLoop=1;jettySize=auto;html=1;exitX=0.5;exitY=1;exitDx=0;exitDy=0;exitPerimeter=0;strokeWidth=2;fontStyle=1" parent="1" source="T-jjDlv4j_7LP1yPRQte-10" target="T-jjDlv4j_7LP1yPRQte-8" edge="1">
          <mxGeometry relative="1" as="geometry" />
        </mxCell>
        <mxCell id="T-jjDlv4j_7LP1yPRQte-10" value="&lt;font style=&quot;font-size: 20px;&quot;&gt;JSONL&lt;/font&gt;" style="shape=note;whiteSpace=wrap;html=1;backgroundOutline=1;darkOpacity=0.05;fontFamily=Poppins;fontSource=https%3A%2F%2Ffonts.googleapis.com%2Fcss%3Ffamily%3DPoppins;fontStyle=1;strokeWidth=2;" parent="1" vertex="1">
          <mxGeometry x="-70" y="670" width="80" height="100" as="geometry" />
        </mxCell>
        <mxCell id="T-jjDlv4j_7LP1yPRQte-12" style="edgeStyle=orthogonalEdgeStyle;rounded=0;orthogonalLoop=1;jettySize=auto;html=1;exitX=0;exitY=0.5;exitDx=0;exitDy=0;entryX=0.5;entryY=0;entryDx=0;entryDy=0;entryPerimeter=0;strokeWidth=2;fontStyle=1;curved=1;" parent="1" source="T-jjDlv4j_7LP1yPRQte-5" target="T-jjDlv4j_7LP1yPRQte-10" edge="1">
          <mxGeometry relative="1" as="geometry" />
        </mxCell>
        <mxCell id="T-jjDlv4j_7LP1yPRQte-19" value="" style="group;strokeWidth=2;fontStyle=1" parent="1" vertex="1" connectable="0">
          <mxGeometry x="90.00000000000003" y="810" width="220" height="58" as="geometry" />
        </mxCell>
        <mxCell id="T-jjDlv4j_7LP1yPRQte-16" value="" style="shape=image;verticalLabelPosition=bottom;labelBackgroundColor=default;verticalAlign=top;aspect=fixed;imageAspect=0;image=https://github.com/QubitPi/QubitPi/raw/master/img/arango-logo-with-text.png?raw=true;strokeWidth=2;fontStyle=1" parent="T-jjDlv4j_7LP1yPRQte-19" vertex="1">
          <mxGeometry x="8.649999999999977" y="3" width="202.7" height="50" as="geometry" />
        </mxCell>
        <mxCell id="T-jjDlv4j_7LP1yPRQte-17" value="" style="rounded=1;whiteSpace=wrap;html=1;fillColor=none;strokeWidth=2;dashed=1;fontStyle=1" parent="T-jjDlv4j_7LP1yPRQte-19" vertex="1">
          <mxGeometry width="220" height="58" as="geometry" />
        </mxCell>
        <mxCell id="T-jjDlv4j_7LP1yPRQte-25" value="GitHub Release Page" style="shape=image;verticalLabelPosition=bottom;labelBackgroundColor=default;verticalAlign=top;aspect=fixed;imageAspect=0;image=https://upload.wikimedia.org/wikipedia/commons/thumb/c/c2/GitHub_Invertocat_Logo.svg/250px-GitHub_Invertocat_Logo.svg.png;strokeWidth=2;fontStyle=1" parent="1" vertex="1">
          <mxGeometry x="650" y="799" width="80" height="80" as="geometry" />
        </mxCell>
        <mxCell id="dO7Njd2AKl4eKcglXN07-6" style="edgeStyle=orthogonalEdgeStyle;rounded=0;orthogonalLoop=1;jettySize=auto;html=1;exitX=0.5;exitY=1;exitDx=0;exitDy=0;entryX=0;entryY=0.5;entryDx=0;entryDy=0;strokeWidth=2;curved=1;" parent="1" source="dO7Njd2AKl4eKcglXN07-3" target="T-jjDlv4j_7LP1yPRQte-1" edge="1">
          <mxGeometry relative="1" as="geometry" />
        </mxCell>
        <mxCell id="dO7Njd2AKl4eKcglXN07-3" value="" style="shape=image;verticalLabelPosition=bottom;labelBackgroundColor=default;verticalAlign=top;aspect=fixed;imageAspect=0;image=https://i0.wp.com/securityaffairs.com/wp-content/uploads/2024/10/image-13.png?fit=417,121&amp;ssl=1;" parent="1" vertex="1">
          <mxGeometry x="-30" y="124.5" width="244.69" height="71" as="geometry" />
        </mxCell>
        <mxCell id="dO7Njd2AKl4eKcglXN07-5" style="edgeStyle=orthogonalEdgeStyle;rounded=0;orthogonalLoop=1;jettySize=auto;html=1;exitX=0.5;exitY=1;exitDx=0;exitDy=0;entryX=1;entryY=0.5;entryDx=0;entryDy=0;strokeWidth=2;curved=1;" parent="1" source="dO7Njd2AKl4eKcglXN07-4" target="T-jjDlv4j_7LP1yPRQte-1" edge="1">
          <mxGeometry relative="1" as="geometry" />
        </mxCell>
        <mxCell id="dO7Njd2AKl4eKcglXN07-4" value="" style="shape=image;verticalLabelPosition=bottom;labelBackgroundColor=default;verticalAlign=top;aspect=fixed;imageAspect=0;image=https://i.ebayimg.com/images/g/BEoAAOSwRlllRdVH/s-l1200.png;" parent="1" vertex="1">
          <mxGeometry x="509.9999999999999" y="118.5" width="194.15" height="83" as="geometry" />
        </mxCell>
        <mxCell id="CfEOtmDMQt-NS2igvaPQ-2" value="" style="group" parent="1" vertex="1" connectable="0">
          <mxGeometry x="370" y="807" width="220" height="64" as="geometry" />
        </mxCell>
        <mxCell id="CfEOtmDMQt-NS2igvaPQ-1" value="" style="rounded=1;whiteSpace=wrap;html=1;fillColor=none;strokeWidth=2;fontStyle=1" parent="CfEOtmDMQt-NS2igvaPQ-2" vertex="1">
          <mxGeometry y="3" width="220" height="58" as="geometry" />
        </mxCell>
        <mxCell id="T-jjDlv4j_7LP1yPRQte-14" value="" style="shape=image;verticalLabelPosition=bottom;labelBackgroundColor=default;verticalAlign=top;aspect=fixed;imageAspect=0;image=https://upload.wikimedia.org/wikipedia/commons/a/a5/Neo4j-logo2024color.png;strokeWidth=2;fontStyle=1" parent="CfEOtmDMQt-NS2igvaPQ-2" vertex="1">
          <mxGeometry x="19.860000000000014" width="180.28" height="64" as="geometry" />
        </mxCell>
        <mxCell id="C5KaRRyOP_gIzHdJBiek-4" style="edgeStyle=orthogonalEdgeStyle;rounded=0;orthogonalLoop=1;jettySize=auto;html=1;exitX=0.5;exitY=1;exitDx=0;exitDy=0;entryX=0.5;entryY=0;entryDx=0;entryDy=0;strokeWidth=2;" parent="1" source="C5KaRRyOP_gIzHdJBiek-3" target="T-jjDlv4j_7LP1yPRQte-4" edge="1">
          <mxGeometry relative="1" as="geometry" />
        </mxCell>
        <mxCell id="C5KaRRyOP_gIzHdJBiek-3" value="&lt;font style=&quot;color: light-dark(rgb(255, 255, 255), rgb(255, 255, 255));&quot;&gt;acceptance-tests&lt;/font&gt;" style="rounded=1;whiteSpace=wrap;html=1;fontFamily=Poppins;fontSource=https%3A%2F%2Ffonts.googleapis.com%2Fcss%3Ffamily%3DPoppins;fontStyle=1;strokeWidth=2;fillColor=light-dark(#03A791,#03A791);" parent="1" vertex="1">
          <mxGeometry x="280" y="600" width="120" height="60" as="geometry" />
        </mxCell>
        <mxCell id="7HvetvC7k7NAmO6hzOwE-2" style="edgeStyle=orthogonalEdgeStyle;rounded=1;orthogonalLoop=1;jettySize=auto;html=1;exitX=1;exitY=0.5;exitDx=0;exitDy=0;entryX=0.5;entryY=0;entryDx=0;entryDy=0;strokeWidth=2;curved=0;" parent="1" source="7HvetvC7k7NAmO6hzOwE-1" target="T-jjDlv4j_7LP1yPRQte-25" edge="1">
          <mxGeometry relative="1" as="geometry" />
        </mxCell>
        <mxCell id="7HvetvC7k7NAmO6hzOwE-3" value="&lt;b&gt;&lt;font face=&quot;Poppins&quot; style=&quot;font-size: 17px;&quot;&gt;Anki Decks&lt;/font&gt;&lt;/b&gt;" style="edgeLabel;html=1;align=center;verticalAlign=middle;resizable=0;points=[];" parent="7HvetvC7k7NAmO6hzOwE-2" vertex="1" connectable="0">
          <mxGeometry x="-0.1234" y="2" relative="1" as="geometry">
            <mxPoint as="offset" />
          </mxGeometry>
        </mxCell>
        <mxCell id="7HvetvC7k7NAmO6hzOwE-1" value="&lt;font style=&quot;color: light-dark(rgb(255, 255, 255), rgb(255, 255, 255));&quot;&gt;graph-data-source&lt;/font&gt;" style="rounded=1;whiteSpace=wrap;html=1;fontFamily=Poppins;fontSource=https%3A%2F%2Ffonts.googleapis.com%2Fcss%3Ffamily%3DPoppins;fontStyle=1;strokeWidth=2;strokeColor=default;fillColor=light-dark(#03A791,#03A791);" parent="1" vertex="1">
          <mxGeometry x="30" y="240" width="620" height="40" as="geometry" />
        </mxCell>
      </root>
    </mxGraphModel>
  </diagram>
</mxfile>
